<svg width="16" height="16" viewBox="0 0 16 16" fill="none" xmlns="http://www.w3.org/2000/svg">
<path d="M1.33333 8.00004H14.6667M1.33333 8.00004C1.33333 11.6819 4.3181 14.6667 8 14.6667M1.33333 8.00004C1.33333 4.31814 4.3181 1.33337 8 1.33337M14.6667 8.00004C14.6667 11.6819 11.6819 14.6667 8 14.6667M14.6667 8.00004C14.6667 4.31814 11.6819 1.33337 8 1.33337M8 1.33337C9.66752 3.15894 10.6152 5.52806 10.6667 8.00004C10.6152 10.472 9.66752 12.8411 8 14.6667M8 1.33337C6.33247 3.15894 5.38483 5.52806 5.33333 8.00004C5.38483 10.472 6.33247 12.8411 8 14.6667" stroke="#2D2D2D" stroke-width="0.5" stroke-linecap="round" stroke-linejoin="round"/>
</svg>
