<svg width="122" height="24" viewBox="0 0 122 24" fill="none" xmlns="http://www.w3.org/2000/svg">
<path fill-rule="evenodd" clip-rule="evenodd" d="M0 10.4161C0 18.6706 0.0590836 20.957 0.2861 21.5015C0.661143 22.4002 1.90783 23.4806 2.90823 23.7739C3.44887 23.9323 6.48225 23.9866 12.3176 23.9425L20.9291 23.8774L21.8309 23.2411C22.3268 22.8912 22.9545 22.1842 23.2254 21.6701L23.7181 20.7352V10.3677V0L21.8652 0.0612958L20.0122 0.122592L19.9586 9.98508C19.9099 18.9566 19.8728 19.8715 19.5476 20.1127C19.0859 20.455 4.64219 20.4972 4.00964 20.1583C3.61363 19.946 3.60008 19.6088 3.60008 9.97766V0.0165433H1.80004H0V10.4161ZM31.5536 12.0083V24L33.4066 23.9387L35.2596 23.8774L35.3655 14.6391L35.4713 5.40061L39.7067 10.4555C42.0362 13.2357 44.1888 15.8078 44.4904 16.1711L45.0386 16.8318L49.8905 11.0369L54.7423 5.24197L54.7974 14.6209L54.8527 24L56.7033 23.9387L58.5542 23.8774V12V0.122592L56.3306 0.0767789L54.107 0.0307537L49.6599 5.42691C47.2139 8.39478 45.1507 10.8254 45.0746 10.8282C44.9988 10.8311 42.9023 8.39987 40.4157 5.42543L35.8949 0.0171797L33.7242 0.0169677L31.5536 0.0165433V12.0083ZM66.4955 12V23.9835L76.7134 23.9788C88.1625 23.9735 87.927 24.0025 89.3064 22.4288C90.2899 21.3072 90.4633 20.3698 90.3867 16.5904C90.3257 13.5765 90.2721 13.1761 89.8018 12.2187C89.302 11.2017 89.2859 11.0303 89.3431 7.31415C89.4083 3.06543 89.2806 2.50592 87.9566 1.24734C86.6634 0.0180279 86.6489 0.0165433 76.1378 0.0165433H66.4955V12ZM100.694 0.412103C99.6268 0.897805 98.5627 2.09657 98.2736 3.13924C97.9718 4.22751 97.9742 19.7803 98.2761 20.8701C98.55 21.8574 99.8163 23.3094 100.742 23.6978C101.276 23.9215 103.301 23.9835 110.08 23.9835C118.732 23.9835 118.736 23.9832 119.669 23.4899C120.183 23.2186 120.888 22.5902 121.238 22.0937L121.873 21.1908L121.937 16.0122L122 10.8335H117.331H112.661V12.7423V14.6512H115.414H118.167V17.295C118.167 19.6917 118.129 19.9591 117.758 20.1583C117.125 20.4972 102.682 20.455 102.216 20.1127C101.885 19.8696 101.86 19.1829 101.911 11.894L101.967 3.94033H110.014H118.061L118.167 4.89476L118.273 5.8492L120.126 5.9105L121.979 5.97179V4.7902C121.979 2.76913 121.033 1.20768 119.332 0.418678C118.552 0.0570538 117.813 0.0258757 110.014 0.0258757C102.273 0.0258757 101.47 0.0591747 100.694 0.412103ZM85.5077 6.84584L85.5666 9.75156L84.8724 9.87946C83.8413 10.0695 70.5827 9.90788 70.3777 9.70278C70.1075 9.43257 70.0327 5.08056 70.287 4.41479L70.5107 3.82877L77.9798 3.88455L85.4489 3.94033L85.5077 6.84584ZM86.204 13.8102C86.5789 14.0113 86.6136 14.2805 86.6136 16.9843C86.6136 19.7224 86.5825 19.9553 86.1896 20.1659C85.6905 20.4334 70.6547 20.3727 70.3849 20.1021C70.1564 19.873 70.0115 15.9518 70.1879 14.7738C70.2822 14.1447 70.4492 13.7979 70.689 13.7347C71.4801 13.526 85.8036 13.5958 86.204 13.8102Z" fill="#2D2D2D"/>
</svg>
