<svg width="17" height="16" viewBox="0 0 17 16" fill="none" xmlns="http://www.w3.org/2000/svg">
<path d="M12.5 10.5579C13.4706 11.0455 14.3028 11.828 14.9102 12.8064C15.0304 13.0002 15.0906 13.0971 15.1114 13.2312C15.1536 13.5038 14.9672 13.839 14.7133 13.9469C14.5883 14 14.4478 14 14.1667 14M11.1667 7.68816C12.1545 7.19726 12.8333 6.17791 12.8333 5C12.8333 3.82209 12.1545 2.80274 11.1667 2.31184M9.83333 5C9.83333 6.65685 8.49019 8 6.83333 8C5.17648 8 3.83333 6.65685 3.83333 5C3.83333 3.34315 5.17648 2 6.83333 2C8.49019 2 9.83333 3.34315 9.83333 5ZM2.20615 12.6256C3.26902 11.0297 4.94625 10 6.83333 10C8.72042 10 10.3976 11.0297 11.4605 12.6256C11.6934 12.9752 11.8098 13.15 11.7964 13.3733C11.7859 13.5471 11.672 13.76 11.533 13.8651C11.3546 14 11.1092 14 10.6184 14H3.04824C2.55745 14 2.31205 14 2.13362 13.8651C1.9947 13.76 1.88072 13.5471 1.87029 13.3733C1.85688 13.15 1.97331 12.9752 2.20615 12.6256Z" stroke="#2D2D2D" stroke-width="0.5" stroke-linecap="round" stroke-linejoin="round"/>
</svg>
